# xmcd CD database file
#
# Track frame offsets:
#	150
#	12009
#	24658
#	38346
#	49917
#	63390
#	75959
#	90272
#	101871
#	116455
#	131927
#	145032
#	159000
#	172288
#	186912
#	200704
#	213399
#	226856
#	240100
#	252478
#	266017
#	279232
#	294387
#	306401
#	319429
#	331979
#
# Disc length: 4582 seconds
#
# Revision: 0
# Processed by: cddbd v1.5.1PL0 Copyright (c) Steve Scherf et al.
# Submitted via: CDex 1.51
#
DISCID=6a11e41a
DTITLE=Charlie Parker - Bluebird (Proper Box 2)
DYEAR=1900
DGENRE=Jazz
TTITLE0=01-Donna Lee
TTITLE1=02-Chasin' The Bird
TTITLE2=03-Cheryl
TTITLE3=04-Buzzy
TTITLE4=05-Dexterity
TTITLE5=06-Bongo Bop
TTITLE6=07-Dewey Square
TTITLE7=08-The Hymn
TTITLE8=09-Bird Of Paradise
TTITLE9=10-Embraceable You
TTITLE10=11-Bird Feathers
TTITLE11=12-Klactoveesedstene
TTITLE12=13-Scrapple From The Apple
TTITLE13=14-My Old Flame
TTITLE14=15-Out Of Nowhere
TTITLE15=16-Don't Blame Me
TTITLE16=17-Drifting On A Reed
TTITLE17=18-Quasimodo
TTITLE18=19-Charlie's Wig
TTITLE19=20-Bongo Beep
TTITLE20=21-Crazeology
TTITLE21=22-How Deep Is The Ocean
TTITLE22=23-Another Hair-Do
TTITLE23=24-Bluebird
TTITLE24=25-Klaunstance
TTITLE25=26-Bird Gets The Worm
EXTD=
EXTT0=
EXTT1=
EXTT2=
EXTT3=
EXTT4=
EXTT5=
EXTT6=
EXTT7=
EXTT8=
EXTT9=
EXTT10=
EXTT11=
EXTT12=
EXTT13=
EXTT14=
EXTT15=
EXTT16=
EXTT17=
EXTT18=
EXTT19=
EXTT20=
EXTT21=
EXTT22=
EXTT23=
EXTT24=
EXTT25=
PLAYORDER=
